<?xml version="1.0" encoding="utf-8"?>
<!-- Generator: Adobe Illustrator 23.0.1, SVG Export Plug-In . SVG Version: 6.00 Build 0)  -->
<svg version="1.1" id="Layer_1" xmlns="http://www.w3.org/2000/svg" xmlns:xlink="http://www.w3.org/1999/xlink" x="0px" y="0px"
	 viewBox="0 0 252 160.6" style="enable-background:new 0 0 252 160.6;" xml:space="preserve">
<style type="text/css">
	.st0{fill:#0082CA;}
</style>
<g>
	<path class="st0" d="M0,0v160.6h252V0H0z M5.5,155.1V5.5h241v149.6H5.5z"/>
	<path class="st0" d="M22.6,11.3L12.1,39.2h6.2l2.2-6.2h10.4l2.1,6.2h6.4L28.9,11.3L22.6,11.3z M22.1,28.4l3.6-10.2h0.1l3.5,10.2
		H22.1z"/>
	<path class="st0" d="M53.3,18.6c-0.4-0.1-0.8-0.2-1.2-0.2c-2.8,0-5.3,1.7-6.5,4.3h-0.1V19h-5.3v20.2h5.5v-9.1
		c0-3.5,1.4-6.5,5.5-6.5c0.7,0,1.3,0.1,2,0.2V18.6z"/>
	<path class="st0" d="M63.2,35.6c-3.5,0-4.6-3.5-4.6-6.4s1.2-6.6,4.7-6.6c2.1-0.2,3.9,1.4,4.1,3.4c0,0,0,0,0,0h5.4
		c-0.3-5.2-4.7-7.7-9.5-7.7c-6.6,0-10.3,4.7-10.3,11c0,6.1,4.1,10.4,10.2,10.4c5.3,0,9-2.9,9.7-8.3h-5.3
		C67.3,33.9,65.8,35.6,63.2,35.6z"/>
	<path class="st0" d="M85.9,18.5c-2.4,0.1-4.6,1.3-5.9,3.4h-0.1V11.3h-5.6v27.9h5.6V28.6c0-4.1,1.3-5.8,4.3-5.8c2.6,0,3.6,1.6,3.6,5
		v11.4h5.6V26.8C93.3,21.8,91.8,18.4,85.9,18.5z"/>
	<path class="st0" d="M102.7,12.9h-5.6V19h-3.4v3.7h3.4v11.9c0,4,3,4.8,6.4,4.8c1.1,0,2.2,0,3.2-0.2v-4.3c-0.6,0.1-1.1,0.2-1.7,0.2
		c-1.9,0-2.3-0.5-2.3-2.3v-10h4.1V19h-4.1V12.9z"/>
	<path class="st0" d="M117.4,18.5c-6.3,0-10.4,4.2-10.4,10.7s4.1,10.6,10.4,10.6s10.5-4.2,10.5-10.6S123.8,18.5,117.4,18.5z
		 M117.4,35.6c-3.8,0-4.9-3.2-4.9-6.5s1.1-6.5,4.9-6.5s4.9,3.2,4.9,6.5S121.2,35.6,117.4,35.6z"/>
	<path class="st0" d="M141.6,18.5c-2.5-0.1-4.9,1-6.4,3h-0.1V11.3h-5.6v27.9h5.3v-2.6h0.1c1.2,2.2,3.7,3.1,6.6,3.1
		c4,0,8.4-3.2,8.4-10.7S145.6,18.4,141.6,18.5z M139.6,35.6c-3.3,0-4.7-3.1-4.7-6.5s1.4-6.5,4.7-6.5s4.7,3.1,4.7,6.5
		S142.9,35.6,139.6,35.6z"/>
	<path class="st0" d="M161.2,18.5c-6.1,0-10.3,4.6-10.3,10.7c0,6.2,3.9,10.6,10.3,10.6c4.6,0,7.9-2,9.5-6.8h-4.9
		c-0.4,1.2-2.1,2.6-4.4,2.6c-3.1,0-4.8-1.6-5-5.1H171C171.5,24.2,168.1,18.5,161.2,18.5z M156.5,26.9c0-2.4,2-4.3,4.5-4.3
		c0.1,0,0.1,0,0.2,0c2.7,0,3.9,1.5,4.4,4.3L156.5,26.9z"/>
	<path class="st0" d="M177.6,22.8L177.6,22.8l-0.1-3.8h-5.3v20.2h5.6v-9.1c0-3.5,1.4-6.5,5.5-6.5c0.7,0,1.3,0.1,2,0.2v-5.2
		c-0.4-0.1-0.8-0.2-1.2-0.2C181.2,18.5,178.7,20.2,177.6,22.8z"/>
</g>
</svg>
